<?xml version="1.0" ?><svg data-name="Layer 3" 
id="Layer_3" viewBox="0 0 1200 2050" xmlns="http://www.w3.org/2000/svg"><defs><style>.cls-1{fill:#4d4d4d;}.cls-2{fill:#fff;}</style></defs><title/><path class="cls-1" d="M1025,1418.6c-77.1,0-156.6-20-236.5-59.5-62.5-30.9-125.3-73.8-186.8-127.4C498,1141.2,434,1051.6,431.3,1047.9a43.6,43.6,0,0,1,0-50.2C434,994,498,904.4,601.7,813.9c61.5-53.6,124.3-96.5,186.8-127.4C868.4,647,947.9,627,1025,627s156.6,20,236.5,59.5c62.5,30.9,125.3,73.8,186.8,127.4C1552,904.4,1616,994,1618.7,997.7a43.6,43.6,0,0,1,0,50.2c-2.7,3.7-66.7,93.3-170.4,183.8-61.5,53.6-124.3,96.5-186.8,127.4C1181.6,1398.6,1102.1,1418.6,1025,1418.6Z"/><path class="cls-2" d="M1025,1277.5a254.7,254.7,0,1,1,180.1-74.6A253.1,253.1,0,0,1,1025,1277.5Zm0-422.7c-92.7,0-168.1,75.3-168.1,168s75.4,168.1,168.1,168.1,168.1-75.4,168.1-168.1S1117.7,854.8,1025,854.8Z"/></svg>